<?xml version="1.0" encoding="UTF-8" standalone="no"?>
<!-- Created with Inkscape (http://www.inkscape.org/) -->

<svg
   width="1023.9999"
   height="703.99915"
   viewBox="0 0 270.93331 186.26645"
   version="1.1"
   id="svg1"
   xmlns="http://www.w3.org/2000/svg"
   xmlns:svg="http://www.w3.org/2000/svg">
  <defs
     id="defs1" />
  <g
     id="layer1"
     transform="translate(0,-42.333445)">
    <g
       id="g9"
       transform="translate(0,1.135e-4)">
      <path
         d="M 232.29797,59.746224 A 38.635447,38.635447 0 0 0 193.6626,98.382109 38.635447,38.635447 0 0 0 232.29797,137.01748 38.635447,38.635447 0 0 0 270.93333,98.382109 38.635447,38.635447 0 0 0 232.29797,59.746224 Z"
         style="fill:#ffffff;stroke-width:3.02519;stroke-linecap:round;stroke-linejoin:round;stroke-miterlimit:17.7"
         id="path8" />
      <path
         id="path7"
         style="fill:#ffffff;stroke-width:3.02519;stroke-linecap:round;stroke-linejoin:round;stroke-miterlimit:17.7"
         d="m 135.46667,42.333333 c -54.406657,10e-7 -20.52193,35.545113 -47.725256,82.662657 -27.203324,47.11753 -74.928576,35.54512 -47.725252,82.66265 27.203326,47.11755 41.043851,0 95.450508,0 54.40664,0 68.24718,47.11755 95.4505,0 27.20332,-47.11754 -20.52193,-35.54511 -47.72525,-82.66265 -27.20332,-47.117544 6.68139,-82.662657 -47.72525,-82.662657 z m 61.57608,112.570907 a 3.96875,3.96875 0 0 1 2.91249,0.8692 3.96875,3.96875 0 0 1 0.57619,5.58209 c -15.82936,19.47815 -39.71536,30.82803 -64.97485,30.89423 -25.25948,0.0662 -49.208596,-11.15798 -65.142273,-30.55265 a 3.96875,3.96875 0 0 1 0.548803,-5.58571 3.96875,3.96875 0 0 1 5.585706,0.54674 c 14.410576,17.54074 36.091374,27.71412 58.986584,27.65412 22.89519,-0.06 44.51974,-10.34674 58.83568,-27.96263 a 3.96875,3.96875 0 0 1 2.67167,-1.44539 z" />
      <path
         d="M 38.635368,59.746224 A 38.635447,38.635447 0 0 0 0,98.381592 38.635447,38.635447 0 0 0 38.635368,137.01696 38.635447,38.635447 0 0 0 77.270736,98.381592 38.635447,38.635447 0 0 0 38.635368,59.746224 Z"
         style="fill:#ffffff;stroke-width:3.02519;stroke-linecap:round;stroke-linejoin:round;stroke-miterlimit:17.7"
         id="path6" />
    </g>
  </g>
</svg>
